HIERARCHY
ROOT Hips
{
	OFFSET 0.00 0.00 0.00
	CHANNELS 6 Xposition Yposition Zposition Xrotation Yrotation Zrotation
	JOINT Spine
	{
		OFFSET 0.00000 6.86429 0.00000
		CHANNELS 3 Xrotation Yrotation Zrotation
		JOINT Head
		{
			OFFSET 0.00000 15.39383 0.00000
			CHANNELS 3 Xrotation Yrotation Zrotation
			End Site
			{
				OFFSET 0.00000 4.52755 0.00000
			}
		}
		JOINT LeftShoulder
		{
			OFFSET 0.00000 9.31483 0.00000
			CHANNELS 3 Xrotation Yrotation Zrotation
			JOINT LeftArm
			{
				OFFSET 8.27540 0.00000 0.00000
				CHANNELS 3 Xrotation Yrotation Zrotation
				JOINT LeftForeArm
				{
					OFFSET 12.00220 0.00000 0.00000
					CHANNELS 3 Yrotation Zrotation Xrotation
					JOINT LeftHand
					{
						OFFSET 10.14463 0.00000 0.00000
						CHANNELS 3 Xrotation Yrotation Zrotation
						JOINT LeftHandThumb1
						{
							OFFSET 0.00000 0.00000 0.00000
							CHANNELS 3 Xrotation Zrotation Yrotation
							End Site
							{
								OFFSET 0.00000 0.00000 3.93700
							}
						}
						End Site
						{
							OFFSET 3.93700 0.00000 0.00000
						}
					}
				}
			}
		}
		JOINT RightShoulder
		{
			OFFSET 0.00000 9.31483 0.00000
			CHANNELS 3 Xrotation Yrotation Zrotation
			JOINT RightArm
			{
				OFFSET -8.27540 0.00000 0.00000
				CHANNELS 3 Xrotation Yrotation Zrotation
				JOINT RightForeArm
				{
					OFFSET -12.00220 0.00000 0.00000
					CHANNELS 3 Yrotation Zrotation Xrotation
					JOINT RightHand
					{
						OFFSET -10.14463 0.00000 0.00000
						CHANNELS 3 Xrotation Yrotation Zrotation
						JOINT RightHandThumb1
						{
							OFFSET 0.00000 0.00000 0.00000
							CHANNELS 3 Xrotation Zrotation Yrotation
							End Site
							{
								OFFSET 0.00000 0.00000 3.93700
							}
						}
						End Site
						{
							OFFSET -3.93700 0.00000 0.00000
						}
					}
				}
			}
		}
	}
	JOINT LeftUpLeg
	{
		OFFSET 4.11738 0.00000 0.00000
		CHANNELS 3 Xrotation Yrotation Zrotation
		JOINT LeftLeg
		{
			OFFSET 0.00000 -19.39432 0.00000
			CHANNELS 3 Xrotation Yrotation Zrotation
			JOINT LeftFoot
			{
				OFFSET 0.00000 -17.60956 0.00000
				CHANNELS 3 Xrotation Yrotation Zrotation
				JOINT LeftToeBase
				{
					OFFSET 0.00000 -1.57501 5.87804
					CHANNELS 3 Xrotation Yrotation Zrotation
					End Site
					{
						OFFSET 0.00000 0.00000 2.95275
					}
				}
			}
		}
	}
	JOINT RightUpLeg
	{
		OFFSET -4.11738 0.00000 0.00000
		CHANNELS 3 Xrotation Yrotation Zrotation
		JOINT RightLeg
		{
			OFFSET 0.00000 -19.39432 0.00000
			CHANNELS 3 Xrotation Yrotation Zrotation
			JOINT RightFoot
			{
				OFFSET 0.00000 -17.60956 0.00000
				CHANNELS 3 Xrotation Yrotation Zrotation
				JOINT RightToeBase
				{
					OFFSET 0.00000 -1.57501 5.87804
					CHANNELS 3 Xrotation Yrotation Zrotation
					End Site
					{
						OFFSET 0.00000 0.00000 2.95275
					}
				}
			}
		}
	}
}
MOTION
Frames:	9
Frame Time: 0.008333
7.4571 40.2610 -15.3238 50.6942 15.5866 -62.9229 15.3080 -2.0998 -18.6921 -29.3630 23.1739 23.4413 -15.3196 4.6362 43.1129 -83.7254 26.6333 -5.7951 -89.5520 0.0000 -10.6089 -5.9431 7.5067 38.5491 32.8623 0.0000 24.3270 18.0410 -15.1194 10.1516 -8.4363 15.4450 88.3582 8.3684 -0.0000 -11.8373 -0.0659 0.3561 10.4877 33.1476 -0.0000 -26.2537 -60.2947 -13.0259 18.6426 24.1962 -0.0000 -0.0000 -24.3440 25.2658 2.8766 8.7974 -0.0000 -0.0000 -15.3344 9.7704 -15.1441 151.3093 -0.0000 -0.0000 17.3416 -3.8637 29.7102 8.8005 -0.0000 -0.0000
7.4479 40.2534 -15.3220 50.7497 15.5817 -63.0129 15.3679 -2.0807 -18.7025 -29.5451 23.4112 23.3584 -15.3724 4.5820 43.2319 -83.6167 26.3355 -5.7472 -89.4571 0.0000 -10.6733 -5.9872 7.6249 38.3238 32.8623 0.0000 24.3270 17.9814 -15.1255 10.1574 -8.4054 15.4414 88.3578 8.3837 0.0000 -11.8687 -0.0629 0.3394 10.4961 33.1476 -0.0000 -26.2537 -60.3856 -13.1484 18.6301 24.3030 -0.0000 -0.0000 -24.4012 25.2778 2.9198 8.7744 -0.0000 -0.0000 -15.3433 9.7956 -15.1132 151.3268 -0.0000 -0.0000 17.3415 -3.8906 29.8189 8.8120 -0.0000 -0.0000
7.4364 40.2458 -15.3226 50.8286 15.5329 -63.1214 15.3625 -2.1011 -18.6800 -29.6229 23.5298 23.2496 -15.4301 4.6321 43.3191 -83.4762 25.9776 -5.7627 -89.3553 0.0000 -10.7162 -6.0193 7.7122 38.1582 32.8623 0.0000 24.3270 18.0585 -15.1352 10.1682 -8.5333 15.5542 88.3663 8.3698 0.0000 -11.9226 -0.0566 0.3069 10.4411 33.1476 -0.0000 -26.2537 -60.5418 -13.2834 18.6199 24.4303 -0.0000 -0.0000 -24.4479 25.3050 2.9244 8.8258 -0.0000 -0.0000 -15.4019 9.8342 -15.0769 151.3460 -0.0000 -0.0000 17.3455 -3.8846 29.9936 8.8523 -0.0000 -0.0000
7.4235 40.2380 -15.3254 50.9091 15.4850 -63.2219 15.3626 -2.1027 -18.6444 -29.6098 23.4316 23.1628 -15.5322 4.5846 43.3971 -83.2142 25.6330 -5.7454 -89.2366 -0.0000 -10.8026 -6.0082 7.7348 38.0254 32.8623 0.0000 24.3270 17.9543 -15.1462 10.1154 -8.4992 15.7430 88.3757 8.2976 0.0000 -12.1507 -0.0687 0.3749 10.3863 33.1476 -0.0000 -26.2537 -60.6963 -13.4249 18.6038 24.5537 -0.0000 -0.0000 -24.5177 25.3250 2.9589 8.8728 -0.0000 -0.0000 -15.4569 9.8822 -15.0532 151.3741 -0.0000 -0.0000 17.2936 -3.8357 29.8945 8.7437 -0.0000 -0.0000
7.4131 40.2310 -15.3262 50.9828 15.4516 -63.3035 15.3779 -2.1114 -18.6460 -29.6308 23.4231 23.0886 -15.6322 4.5286 43.4878 -82.9210 25.2775 -5.7347 -89.1364 -0.0000 -10.9627 -6.0043 7.7074 38.1055 32.8623 0.0000 24.3270 17.8848 -15.1935 10.0862 -8.4722 15.8139 88.4007 8.3046 0.0000 -12.0964 -0.0738 0.4058 10.3068 33.1476 -0.0000 -26.2537 -60.8247 -13.5221 18.5843 24.6453 -0.0000 -0.0000 -24.5508 25.3281 2.9625 8.8603 -0.0000 -0.0000 -15.5068 9.8792 -15.0312 151.3988 -0.0000 -0.0000 17.2440 -3.9063 29.7385 8.7650 -0.0000 -0.0000
7.4030 40.2232 -15.3276 51.0572 15.4199 -63.3716 15.3204 -2.1747 -18.6842 -29.5430 23.4135 23.1255 -15.5742 4.5730 43.6437 -82.6948 24.9933 -5.7248 -89.1148 -0.0000 -11.2190 -5.9910 7.4503 38.9851 32.8623 0.0000 24.3270 17.9088 -15.1217 10.0623 -8.5045 15.8626 88.4274 8.3010 0.0000 -12.0300 -0.0790 0.4348 10.2938 33.1476 -0.0000 -26.2537 -60.9588 -13.6058 18.5545 24.7500 -0.0000 -0.0000 -24.5999 25.3378 2.9450 8.8763 -0.0000 -0.0000 -15.5403 9.8849 -15.0315 151.4179 -0.0000 -0.0000 17.2395 -3.9406 29.7031 8.7547 -0.0000 -0.0000
7.3927 40.2160 -15.3283 51.1288 15.3818 -63.4515 15.3103 -2.1860 -18.6893 -29.5723 23.4095 23.0860 -15.5645 4.5868 43.7842 -82.4606 24.7307 -5.7349 -89.0925 0.0000 -11.4398 -5.9761 7.2186 39.7973 32.8623 0.0000 24.3270 17.8520 -15.1481 10.0571 -8.4326 15.8230 88.4248 8.3942 0.0000 -11.8734 -0.0681 0.3756 10.2743 33.1476 -0.0000 -26.2537 -61.1025 -13.6796 18.5427 24.8580 -0.0000 -0.0000 -24.6464 25.3035 2.9378 8.9141 -0.0000 -0.0000 -15.5973 9.8770 -15.0056 151.4199 -0.0000 -0.0000 17.3150 -3.9786 29.6091 8.7645 -0.0000 -0.0000
7.3843 40.2107 -15.3299 51.1858 15.3386 -63.5259 15.3161 -2.1912 -18.6916 -29.6602 23.4302 23.0527 -15.5907 4.5828 43.9224 -82.2238 24.4803 -5.7253 -89.0459 0.0000 -11.6031 -5.9471 7.0750 40.2233 32.8623 0.0000 24.3270 17.8643 -15.1298 10.0955 -8.5026 16.0026 88.4075 8.2854 -0.0000 -12.1221 -0.1021 0.5678 10.1900 33.1476 -0.0000 -26.2537 -61.2316 -13.7443 18.5428 24.9527 -0.0000 -0.0000 -24.6995 25.3178 2.8386 9.4194 -0.0000 -0.0000 -15.6432 9.8953 -14.9857 151.4387 -0.0000 -0.0000 17.3308 -4.0094 29.5615 8.7573 -0.0000 -0.0000
7.3741 40.2070 -15.3384 51.1696 15.2215 -63.6391 15.2725 -2.1060 -18.5985 -29.6706 23.4467 22.9165 -15.6389 4.6362 44.0101 -82.1451 24.2078 -5.7195 -88.9591 0.0000 -11.4592 -5.9288 7.3930 38.9055 32.8623 0.0000 24.3270 17.8501 -15.1348 10.0244 -8.5346 15.9870 88.4146 8.2969 -0.0000 -12.0759 -0.0938 0.5191 10.2469 33.1476 -0.0000 -26.2537 -61.3936 -13.8144 18.6501 25.0748 -0.0000 -0.0000 -24.7613 25.2423 2.9627 9.0327 -0.0000 -0.0000 -15.7679 10.0152 -14.8891 151.4898 -0.0000 -0.0000 17.3282 -3.9904 29.5166 8.6804 -0.0000 -0.0000
